<svg width="64" height="64" viewBox="0 0 64 64" fill="none" xmlns="http://www.w3.org/2000/svg">
<g clip-path="url(#clip0_649_179)">
<circle cx="32" cy="32" r="32" fill="white"/>
<path fill-rule="evenodd" clip-rule="evenodd" d="M27.2008 26.3422H34.1336V29.7955C35.1322 27.8094 37.6933 26.0248 41.5405 26.0248C48.9157 26.0248 50.6666 29.9784 50.6666 37.2323V50.6667H43.2V38.8843C43.2 34.7534 42.2013 32.4238 39.6589 32.4238C36.1328 32.4238 34.6674 34.9344 34.6674 38.8824V50.6667H27.2008V26.3422ZM14.3973 50.3494H21.864V26.0248H14.3973V50.3494ZM22.9336 18.0934C22.9339 18.7192 22.8097 19.3389 22.5684 19.9163C22.3271 20.4938 21.9735 21.0175 21.528 21.4571C20.6253 22.3543 19.4034 22.8565 18.1306 22.8534C16.8602 22.8525 15.6411 22.3516 14.737 21.459C14.2932 21.0179 13.9407 20.4936 13.6998 19.916C13.4589 19.3385 13.3344 18.7191 13.3333 18.0934C13.3333 16.8296 13.8373 15.62 14.7389 14.7278C15.6422 13.8339 16.8618 13.3328 18.1325 13.3334C19.4056 13.3334 20.6264 13.8355 21.528 14.7278C22.4277 15.62 22.9336 16.8296 22.9336 18.0934Z" fill="#0B0B0D"/>
</g>
<defs>
<clipPath id="clip0_649_179">
<rect width="64" height="64" fill="white"/>
</clipPath>
</defs>
</svg>
