<svg width="64" height="64" viewBox="0 0 64 64" fill="none" xmlns="http://www.w3.org/2000/svg">
<g clip-path="url(#clip0_649_176)">
<circle cx="32" cy="32" r="32" fill="white"/>
<path d="M46.2305 17.7716C43.2112 14.7523 39.9858 16.7065 37.9673 18.725L28.4339 28.2591L18.8994 37.7934C16.8809 39.8116 14.7682 42.8783 17.946 46.0557C21.1239 49.2342 24.1905 47.121 26.2086 45.1026L35.7427 35.5685L45.2768 26.0346C47.2954 24.0159 49.2495 20.7906 46.2305 17.7716Z" fill="#0B0B0D"/>
<path d="M28.013 16.9907L32.0506 21.0281L36.1604 16.9183C36.4394 16.6387 36.7227 16.3791 37.0077 16.1344C36.5773 13.963 35.3383 12 32.0487 12C28.7529 12 27.5154 13.9707 27.0875 16.1468C27.395 16.413 27.7023 16.6798 28.013 16.9907Z" fill="#0B0B0D"/>
<path d="M36.1582 46.9814L32.051 42.874L28.0156 46.909C27.7092 47.2157 27.4042 47.4958 27.1006 47.759C27.5633 49.9725 28.873 52 32.0493 52C35.234 52 36.542 49.9616 37.0017 47.741C36.7193 47.4979 36.4364 47.2596 36.1582 46.9814Z" fill="#0B0B0D"/>
<path d="M26.3008 26.7784H18.5169C15.6626 26.7784 12 27.6774 12 31.9469C12 35.1326 14.039 36.4408 16.2601 36.9003C16.523 36.5969 26.3008 26.7784 26.3008 26.7784Z" fill="#0B0B0D"/>
<path d="M47.8543 26.9856C47.6078 27.2721 37.8097 37.1154 37.8097 37.1154H45.4831C48.3374 37.1154 52 36.4411 52 31.947C52 28.6516 50.0299 27.4134 47.8543 26.9856Z" fill="#0B0B0D"/>
<path d="M28.8511 24.2231L30.2417 22.8325L26.2067 18.797C24.188 16.7788 21.1218 14.6659 17.944 17.8437C15.6137 20.1739 16.1313 22.4419 17.3673 24.283C17.7437 24.255 28.8511 24.2231 28.8511 24.2231Z" fill="#0B0B0D"/>
<path d="M35.2492 39.6708L33.855 41.0651L37.9652 45.1748C39.9836 47.1935 43.209 49.1473 46.2279 46.1284C48.4806 43.8754 47.9637 41.5092 46.7183 39.6136C46.3174 39.6426 35.2492 39.6708 35.2492 39.6708Z" fill="#0B0B0D"/>
</g>
<defs>
<clipPath id="clip0_649_176">
<rect width="64" height="64" fill="white"/>
</clipPath>
</defs>
</svg>
