<svg width="16" height="16" viewBox="0 0 16 16" fill="none" xmlns="http://www.w3.org/2000/svg">
<path d="M13.6922 2.30868C12.4845 1.10094 11.1943 1.88263 10.3869 2.69002L6.57355 6.50365L2.75974 10.3174C1.95235 11.1247 1.10728 12.3513 2.3784 13.6223C3.64953 14.8937 4.8762 14.0484 5.68342 13.2411L9.49705 9.42742L13.3107 5.61387C14.1182 4.80639 14.8998 3.51625 13.6922 2.30868Z" fill="white"/>
<path d="M6.40524 1.99628L8.02027 3.61123L9.66417 1.96733C9.77578 1.85547 9.8891 1.75165 10.0031 1.65375C9.83094 0.785203 9.33534 0 8.0195 0C6.70118 0 6.20617 0.788286 6.03503 1.65872C6.15804 1.76519 6.28095 1.87191 6.40524 1.99628Z" fill="white"/>
<path d="M9.66327 13.9926L8.0204 12.3496L6.40623 13.9636C6.28366 14.0863 6.16168 14.1983 6.04022 14.3036C6.22532 15.189 6.74919 16 8.01972 16C9.29359 16 9.81677 15.1846 10.0007 14.2964C9.88769 14.1992 9.77454 14.1038 9.66327 13.9926Z" fill="white"/>
<path d="M5.72032 5.91132H2.60675C1.46505 5.91132 0 6.2709 0 7.97869C0 9.25299 0.815611 9.77626 1.70403 9.96008C1.80921 9.8387 5.72032 5.91132 5.72032 5.91132Z" fill="white"/>
<path d="M14.3417 5.99426C14.2431 6.10887 10.3239 10.0462 10.3239 10.0462H13.3932C14.5349 10.0462 16 9.77646 16 7.97881C16 6.66066 15.2119 6.1654 14.3417 5.99426Z" fill="white"/>
<path d="M6.74046 4.88931L7.29671 4.33306L5.68271 2.71889C4.87523 1.91159 3.64873 1.06642 2.37761 2.33755C1.4455 3.26965 1.65253 4.17683 2.14694 4.91329C2.29752 4.90207 6.74046 4.88931 6.74046 4.88931Z" fill="white"/>
<path d="M9.29971 11.0682L8.742 11.6259L10.3861 13.2698C11.1935 14.0773 12.4836 14.8588 13.6912 13.6512C14.5923 12.7501 14.3855 11.8036 13.8873 11.0453C13.727 11.0569 9.29971 11.0682 9.29971 11.0682Z" fill="white"/>
</svg>
