<svg width="100" height="100" viewBox="0 0 100 100" fill="none" xmlns="http://www.w3.org/2000/svg">
<path d="M46.725 0.0255164C46.5083 0.0463462 45.825 0.117167 45.2083 0.162993C31.0083 1.44611 17.7083 9.10729 9.275 20.8844C4.61792 27.3488 1.5905 34.8418 0.45 42.7265C0.05 45.476 0 46.2842 0 50.0086C0 53.733 0.05 54.5453 0.45 57.2907C3.16667 76.0666 16.5333 91.8389 34.6542 97.6837C37.9 98.7294 41.3208 99.4418 45.2083 99.875C46.725 100.042 53.275 100.042 54.7917 99.875C61.5042 99.1293 67.1958 97.4671 72.8042 94.6051C73.6667 94.1677 73.8333 94.0469 73.7167 93.951C70.9733 90.3338 68.258 86.6954 65.5708 83.0363L57.575 72.2339L47.5583 57.4073C44.2255 52.4482 40.8615 47.5101 37.4667 42.5932C37.4292 42.5807 37.3917 49.1671 37.3708 57.2157C37.3417 71.2966 37.3292 71.8632 37.1542 72.1965C36.9835 72.5854 36.6789 72.9002 36.2958 73.0838C35.9833 73.2421 35.7125 73.2713 34.2333 73.2713H32.5417L32.0917 72.988C31.8132 72.8122 31.5872 72.5647 31.4375 72.2714L31.2292 71.834L31.25 52.2374L31.2792 32.6324L31.5833 32.2491C31.7881 32.0095 32.0335 31.8079 32.3083 31.6534C32.7083 31.4576 32.8625 31.441 34.5583 31.441C36.55 31.441 36.8833 31.5159 37.4 32.0825C37.5458 32.2408 42.9708 40.4144 49.4625 50.2544L69.1875 80.1326L77.1042 92.1222L77.5083 91.8597C81.3183 89.3272 84.7725 86.2967 87.7792 82.8488C94.0798 75.6387 98.1668 66.7647 99.55 57.2907C99.95 54.5411 100 53.733 100 50.0086C100 46.2842 99.95 45.476 99.55 42.7265C96.8333 23.9547 83.4667 8.17828 65.3458 2.33345C61.9591 1.25684 58.4718 0.526836 54.9375 0.154661C53.9958 0.0546781 47.5375 -0.0536366 46.7292 0.0296824L46.725 0.0255164ZM67.1958 30.2703C67.4282 30.3873 67.6351 30.5492 67.8046 30.7465C67.9741 30.9438 68.1028 31.1728 68.1833 31.4201C68.2583 31.6701 68.2792 37.1066 68.2583 49.3545L68.2292 66.9265L65.1333 62.1773L62.025 57.4282V44.6553C62.025 36.3943 62.0625 31.7534 62.1208 31.5284C62.1902 31.2682 62.3116 31.0248 62.4778 30.8128C62.6439 30.6009 62.8513 30.4248 63.0875 30.2953C63.4917 30.087 63.6375 30.0704 65.1708 30.0704C66.6167 30.0704 66.8708 30.0912 67.1958 30.2662V30.2703Z" fill="white"/>
<path d="M26.4941 16.0921L33.2167 23.7391L31.8202 24.9667L24.2621 23.0784L24.2061 23.1277L28.4373 27.9407L26.8205 29.362L20.0979 21.715L21.5168 20.4676L29.0454 22.3751L29.1127 22.3161L24.8848 17.5068L26.4941 16.0921Z" fill="black"/>
<path d="M39.0609 20.7676L36.6368 10.8786L43.3003 9.24518L43.7229 10.969L39.1502 12.0899L39.7278 14.4463L43.9576 13.4094L44.3802 15.1332L40.1503 16.1701L40.7291 18.5313L45.3211 17.4057L45.7437 19.1295L39.0609 20.7676Z" fill="black"/>
<path d="M56.3301 9.39963L57.4982 13.2589L57.5754 13.2778L60.4055 10.3986L62.7667 10.9774L58.5368 15.1822L60.4102 20.883L58.0056 20.2936L56.8049 16.4212L56.7276 16.4023L53.8722 19.2804L51.4772 18.6933L55.7844 14.5075L53.9592 8.81847L56.3301 9.39963Z" fill="black"/>
<path d="M71.3786 17.3745L72.5716 16.0605L78.7627 21.6816L77.5697 22.9956L75.2618 20.9002L69.6106 27.1245L68.0353 25.6941L73.6864 19.4699L71.3786 17.3745Z" fill="black"/>
<path d="M45.5808 83.7618L47.6626 84.2019L46.1942 91.1479C46.0585 91.7899 45.7963 92.3172 45.4076 92.7296C45.0221 93.1427 44.5478 93.4235 43.9845 93.5721C43.4213 93.7206 42.8024 93.7236 42.1279 93.581C41.528 93.4542 41.0055 93.2337 40.5604 92.9194C40.1192 92.6025 39.8019 92.1967 39.6084 91.7018C39.4156 91.2037 39.3907 90.6243 39.5338 89.9634L41.6302 90.4066C41.5812 90.6706 41.5871 90.9073 41.6478 91.1167C41.7125 91.3234 41.8234 91.4959 41.9805 91.6342C42.1415 91.7698 42.3453 91.8637 42.5917 91.9158C42.8511 91.9706 43.0817 91.9618 43.2833 91.8892C43.4889 91.8141 43.6617 91.6779 43.8017 91.4805C43.9416 91.2831 44.0452 91.0255 44.1124 90.7078L45.5808 83.7618Z" fill="black"/>
<path d="M57.339 86.3405C57.2278 85.9531 57.0039 85.6773 56.6674 85.513C56.3308 85.3487 55.9082 85.313 55.3995 85.4058C55.0539 85.4689 54.771 85.5711 54.5509 85.7123C54.3301 85.8503 54.1716 86.0157 54.0754 86.2085C53.9825 86.4006 53.9556 86.6043 53.9949 86.8195C54.0211 87 54.0872 87.1497 54.1931 87.2685C54.3023 87.3867 54.4392 87.4813 54.6037 87.5524C54.7677 87.6201 54.9524 87.6723 55.1579 87.7089C55.3628 87.7423 55.5789 87.7635 55.8063 87.7725L56.7455 87.8234C57.2002 87.8415 57.6251 87.8987 58.02 87.9951C58.415 88.0914 58.7678 88.2342 59.0786 88.4234C59.3894 88.6127 59.6477 88.8553 59.8533 89.1513C60.0622 89.4467 60.2064 89.8028 60.2859 90.2195C60.3945 90.8331 60.335 91.3931 60.1074 91.8996C59.8824 92.4023 59.5024 92.8304 58.9673 93.1842C58.4348 93.5341 57.761 93.7834 56.9459 93.9322C56.1372 94.0798 55.4104 94.0845 54.7652 93.9462C54.1233 93.8073 53.5901 93.5256 53.1656 93.1011C52.7437 92.6727 52.4589 92.0997 52.311 91.3822L54.3603 91.0081C54.4444 91.3397 54.5918 91.6026 54.8024 91.7966C55.0156 91.9868 55.2762 92.1127 55.5839 92.1745C55.8943 92.2324 56.2321 92.228 56.5973 92.1613C56.956 92.0959 57.2578 91.9868 57.5029 91.8343C57.7512 91.6812 57.9318 91.4983 58.0446 91.2856C58.1574 91.073 58.1917 90.846 58.1477 90.6048C58.1066 90.3798 58.0053 90.2029 57.8436 90.074C57.6852 89.9446 57.469 89.8493 57.1951 89.7881C56.9244 89.7264 56.5984 89.6848 56.2172 89.6634L55.0765 89.5886C54.1945 89.5374 53.4691 89.3379 52.9003 88.9903C52.3315 88.6427 51.9811 88.0985 51.8493 87.3577C51.7353 86.7519 51.8 86.1926 52.0433 85.6799C52.2899 85.1665 52.6769 84.7303 53.2043 84.3713C53.7318 84.0122 54.3607 83.766 55.091 83.6327C55.8344 83.497 56.5065 83.5057 57.1072 83.6588C57.7111 83.8114 58.2094 84.086 58.6019 84.4826C58.9943 84.8793 59.2499 85.3751 59.3686 85.97L57.339 86.3405Z" fill="black"/>
</svg>
