<svg width="100" height="100" viewBox="0 0 100 100" fill="none" xmlns="http://www.w3.org/2000/svg">
<g clip-path="url(#clip0_384_82)">
<circle cx="50" cy="50" r="50" fill="#69AEFF"/>
<ellipse cx="50.4679" cy="50" rx="9.3525" ry="23.4678" transform="rotate(-30 50.4679 50)" stroke="black" stroke-width="3"/>
<ellipse cx="50.4678" cy="50" rx="9.3525" ry="23.4678" transform="rotate(-90 50.4678 50)" stroke="black" stroke-width="3"/>
<ellipse cx="50.4679" cy="50" rx="9.3525" ry="23.4678" transform="rotate(30 50.4679 50)" stroke="black" stroke-width="3"/>
<circle cx="50.0649" cy="49.9889" r="4.83659" fill="black"/>
<path d="M45.5808 83.7618L47.6626 84.2019L46.1942 91.1479C46.0585 91.7899 45.7963 92.3172 45.4076 92.7296C45.0221 93.1427 44.5478 93.4235 43.9845 93.5721C43.4213 93.7206 42.8024 93.7236 42.1279 93.581C41.528 93.4542 41.0055 93.2337 40.5604 92.9194C40.1192 92.6025 39.8019 92.1967 39.6084 91.7018C39.4156 91.2037 39.3907 90.6243 39.5338 89.9634L41.6302 90.4066C41.5812 90.6706 41.5871 90.9073 41.6478 91.1167C41.7125 91.3234 41.8234 91.4959 41.9805 91.6342C42.1415 91.7698 42.3453 91.8637 42.5917 91.9158C42.8511 91.9706 43.0817 91.9618 43.2833 91.8892C43.4889 91.8141 43.6617 91.6779 43.8017 91.4805C43.9416 91.2831 44.0452 91.0255 44.1124 90.7078L45.5808 83.7618Z" fill="black"/>
<path d="M57.339 86.3405C57.2278 85.9531 57.0039 85.6773 56.6674 85.513C56.3308 85.3487 55.9082 85.313 55.3995 85.4058C55.0539 85.4689 54.771 85.5711 54.5509 85.7123C54.3301 85.8503 54.1716 86.0157 54.0754 86.2085C53.9825 86.4006 53.9556 86.6043 53.9949 86.8195C54.0211 87 54.0872 87.1497 54.1931 87.2685C54.3023 87.3867 54.4392 87.4813 54.6037 87.5524C54.7677 87.6201 54.9524 87.6723 55.1579 87.7089C55.3628 87.7423 55.5789 87.7635 55.8063 87.7725L56.7455 87.8234C57.2002 87.8415 57.6251 87.8987 58.02 87.9951C58.415 88.0914 58.7678 88.2342 59.0786 88.4234C59.3894 88.6127 59.6477 88.8553 59.8533 89.1513C60.0622 89.4467 60.2064 89.8028 60.2859 90.2195C60.3945 90.8331 60.335 91.3931 60.1074 91.8996C59.8824 92.4023 59.5024 92.8304 58.9673 93.1842C58.4348 93.5341 57.761 93.7834 56.9459 93.9322C56.1372 94.0798 55.4104 94.0845 54.7652 93.9462C54.1233 93.8073 53.5901 93.5256 53.1656 93.1011C52.7437 92.6727 52.4589 92.0997 52.311 91.3822L54.3603 91.0081C54.4444 91.3397 54.5918 91.6026 54.8024 91.7966C55.0156 91.9868 55.2762 92.1127 55.5839 92.1745C55.8943 92.2324 56.2321 92.228 56.5973 92.1613C56.956 92.0959 57.2578 91.9868 57.5029 91.8343C57.7512 91.6812 57.9318 91.4983 58.0446 91.2856C58.1574 91.073 58.1917 90.846 58.1477 90.6048C58.1066 90.3798 58.0053 90.2029 57.8436 90.074C57.6852 89.9446 57.469 89.8493 57.1951 89.7881C56.9244 89.7264 56.5984 89.6848 56.2172 89.6634L55.0765 89.5886C54.1945 89.5374 53.4691 89.3379 52.9003 88.9903C52.3315 88.6427 51.9811 88.0985 51.8493 87.3577C51.7353 86.7519 51.8 86.1926 52.0433 85.6799C52.2899 85.1665 52.6769 84.7303 53.2043 84.3713C53.7318 84.0122 54.3607 83.766 55.091 83.6327C55.8344 83.497 56.5065 83.5057 57.1072 83.6588C57.7111 83.8114 58.2094 84.086 58.6019 84.4826C58.9943 84.8793 59.2499 85.3751 59.3686 85.97L57.339 86.3405Z" fill="black"/>
<path d="M21.6071 32.9224L14.3439 25.787L17.159 22.9214C17.6979 22.3729 18.2559 22.0011 18.8331 21.8062C19.4102 21.6065 19.9772 21.5804 20.534 21.7278C21.0907 21.8705 21.609 22.1776 22.089 22.6491C22.5713 23.123 22.8841 23.6346 23.0272 24.1841C23.168 24.7313 23.1367 25.2929 22.9332 25.8689C22.732 26.4426 22.3574 27.0084 21.8092 27.5664L19.9243 29.4851L18.6901 28.2726L20.3311 26.6022C20.6191 26.309 20.8182 26.026 20.9283 25.7531C21.0384 25.4803 21.0595 25.2176 20.9916 24.9651C20.926 24.7102 20.7739 24.4655 20.5351 24.2309C20.2939 23.9939 20.043 23.8427 19.7822 23.777C19.5238 23.709 19.2557 23.7313 18.9778 23.8439C18.6998 23.9518 18.4157 24.1536 18.1253 24.4491L17.108 25.4847L23.1157 31.3868L21.6071 32.9224ZM22.1552 25.7528L27.234 27.1948L25.5686 28.8901L20.5281 27.409L22.1552 25.7528Z" fill="black"/>
<path d="M32.3888 23.6948L28.2681 14.3841L34.5419 11.6074L35.2602 13.2304L30.9549 15.1359L31.9368 17.3544L35.9193 15.5919L36.6376 17.2149L32.6551 18.9774L33.639 21.2006L37.9625 19.2871L38.6808 20.9101L32.3888 23.6948Z" fill="black"/>
<path d="M46.5814 19.2129L44.2754 19.273L47.524 9.00307L50.2972 8.93083L54.0711 19.0178L51.7651 19.0779L49.011 11.2918L48.9314 11.2939L46.5814 19.2129ZM46.3331 15.2159L51.7801 15.074L51.8239 16.7538L46.3769 16.8957L46.3331 15.2159Z" fill="black"/>
<path d="M70.7667 17.4054L68.7532 16.5762C68.8237 16.3006 68.8439 16.0383 68.8138 15.7893C68.785 15.5373 68.7113 15.3026 68.5929 15.0854C68.4744 14.8682 68.3145 14.6733 68.1132 14.5007C67.9149 14.3295 67.6809 14.1883 67.4112 14.0772C66.9239 13.8766 66.4496 13.8229 65.9882 13.9161C65.5281 14.0062 65.1039 14.2401 64.7153 14.6178C64.3281 14.9924 64.0001 15.5061 63.7313 16.1589C63.4549 16.83 63.3223 17.435 63.3334 17.9736C63.3477 18.5136 63.4877 18.9745 63.7534 19.3563C64.0191 19.7381 64.3895 20.0269 64.8645 20.2225C65.1311 20.3323 65.3924 20.3986 65.6482 20.4215C65.9071 20.4457 66.1531 20.4269 66.3864 20.3653C66.621 20.3006 66.8369 20.1941 67.0341 20.0459C67.2344 19.899 67.4093 19.7094 67.5587 19.477L69.5684 20.3153C69.3384 20.726 69.0365 21.0892 68.6628 21.4048C68.2934 21.7187 67.869 21.9615 67.3897 22.1333C66.9146 22.3033 66.3987 22.3812 65.8418 22.3669C65.2892 22.3509 64.7111 22.2185 64.1073 21.9699C63.2676 21.6241 62.595 21.1249 62.0895 20.4723C61.587 19.8209 61.2926 19.0563 61.2061 18.1783C61.1226 17.3016 61.2916 16.3515 61.7131 15.3278C62.1359 14.3012 62.6887 13.5072 63.3714 12.946C64.0541 12.3848 64.8041 12.052 65.6213 11.9477C66.4398 11.8402 67.2627 11.9569 68.0902 12.2976C68.6357 12.5223 69.1099 12.8071 69.5126 13.1522C69.9184 13.4985 70.2415 13.8932 70.482 14.3364C70.7238 14.7764 70.871 15.2546 70.9236 15.7709C70.9793 16.2885 70.927 16.8333 70.7667 17.4054Z" fill="black"/>
<path d="M79.1218 20.8832L80.3879 19.6393L86.2482 25.6045L84.9821 26.8484L82.7975 24.6247L76.8004 30.5164L75.3092 28.9985L81.3063 23.1068L79.1218 20.8832Z" fill="black"/>
</g>
<defs>
<clipPath id="clip0_384_82">
<rect width="100" height="100" fill="white"/>
</clipPath>
</defs>
</svg>
