<svg width="64" height="64" viewBox="0 0 64 64" fill="none" xmlns="http://www.w3.org/2000/svg">
<g clip-path="url(#clip0_649_175)">
<path d="M32 64C49.6731 64 64 49.6731 64 32C64 14.3269 49.6731 0 32 0C14.3269 0 0 14.3269 0 32C0 49.6731 14.3269 64 32 64Z" fill="white"/>
<path d="M53.2875 32.3051C53.2875 29.7111 51.1897 27.6508 48.6332 27.6508C47.4256 27.6492 46.264 28.1139 45.3907 28.9481C42.1862 26.6588 37.7987 25.1713 32.9157 24.9806L35.0517 14.9853L41.995 16.4728C42.0717 18.2278 43.521 19.6396 45.3145 19.6396C47.1455 19.6396 48.6332 18.1521 48.6332 16.3201C48.6332 14.4891 47.1457 13.0013 45.3145 13.0013C44.0175 13.0013 42.8725 13.7643 42.3385 14.8708L34.5945 13.2303C34.3655 13.1918 34.1365 13.2303 33.9837 13.3448C33.793 13.4593 33.6787 13.6498 33.641 13.8788L31.275 25.0183C26.3157 25.1713 21.852 26.6588 18.6095 28.9863C17.7361 28.1522 16.5744 27.6876 15.3667 27.6893C12.7725 27.6893 10.7125 29.7871 10.7125 32.3436C10.7125 34.2508 11.8567 35.8528 13.4595 36.5783C13.3817 37.0448 13.3434 37.517 13.345 37.9898C13.345 45.1613 21.7 50.9988 32.0002 50.9988C42.3007 50.9988 50.6557 45.1998 50.6557 37.9898C50.6555 37.517 50.6172 37.045 50.5412 36.5783C52.1432 35.8528 53.2875 34.2123 53.2875 32.3051ZM21.318 35.6238C21.318 33.7928 22.8055 32.3051 24.6375 32.3051C26.4685 32.3051 27.9562 33.7926 27.9562 35.6238C27.9562 37.4551 26.4687 38.9433 24.6375 38.9433C22.8057 38.9808 21.318 37.4551 21.318 35.6238ZM39.8972 44.4366C37.6082 46.7258 33.259 46.8786 32.0002 46.8786C30.7032 46.8786 26.3542 46.6873 24.1027 44.4366C23.76 44.0933 23.76 43.5591 24.1027 43.2158C24.4462 42.8731 24.9802 42.8731 25.3237 43.2158C26.7737 44.6658 29.8257 45.1613 32.0002 45.1613C34.175 45.1613 37.2647 44.6656 38.6762 43.2158C39.0197 42.8731 39.5537 42.8731 39.8972 43.2158C40.2022 43.5591 40.2022 44.0933 39.8972 44.4366ZM39.2865 38.9811C37.4552 38.9811 35.9677 37.4936 35.9677 35.6623C35.9677 33.8311 37.4552 32.3436 39.2865 32.3436C41.1182 32.3436 42.6057 33.8311 42.6057 35.6623C42.6057 37.4548 41.1182 38.9811 39.2865 38.9811Z" fill="#0B0B0D"/>
</g>
<defs>
<clipPath id="clip0_649_175">
<rect width="64" height="64" fill="white"/>
</clipPath>
</defs>
</svg>
