<svg width="100" height="100" viewBox="0 0 100 100" fill="none" xmlns="http://www.w3.org/2000/svg">
<path d="M50 0L60.7669 9.81749L75 6.69873L79.4156 20.5844L93.3013 25L90.1825 39.2331L100 50L90.1825 60.7669L93.3013 75L79.4156 79.4156L75 93.3013L60.7669 90.1825L50 100L39.2331 90.1825L25 93.3013L20.5844 79.4156L6.69873 75L9.81749 60.7669L0 50L9.81749 39.2331L6.69873 25L20.5844 20.5844L25 6.69873L39.2331 9.81749L50 0Z" fill="#69AEFF"/>
<path d="M33.6417 51.3821V46.8182H55.1445V51.3821H47.1289V73H41.6573V51.3821H33.6417ZM72.8889 54.348C72.7866 53.3168 72.3477 52.5156 71.5721 51.9446C70.7965 51.3736 69.744 51.0881 68.4144 51.0881C67.511 51.0881 66.7482 51.2159 66.1261 51.4716C65.5039 51.7188 65.0266 52.0639 64.6942 52.5071C64.3704 52.9503 64.2085 53.4531 64.2085 54.0156C64.1914 54.4844 64.2894 54.8935 64.5025 55.2429C64.7241 55.5923 65.0266 55.8949 65.4102 56.1506C65.7937 56.3977 66.2369 56.6151 66.7397 56.8026C67.2425 56.9815 67.7795 57.1349 68.3505 57.2628L70.7028 57.8253C71.8448 58.081 72.8931 58.4219 73.8477 58.848C74.8022 59.2741 75.6289 59.7983 76.3278 60.4205C77.0266 61.0426 77.5678 61.7756 77.9514 62.6193C78.3434 63.4631 78.5437 64.4304 78.5522 65.5213C78.5437 67.1236 78.1346 68.5128 77.3249 69.6889C76.5238 70.8565 75.3647 71.7642 73.8477 72.4119C72.3391 73.0511 70.5195 73.3707 68.3889 73.3707C66.2752 73.3707 64.4343 73.0469 62.8661 72.3991C61.3065 71.7514 60.0877 70.7926 59.2099 69.5227C58.3406 68.2443 57.8846 66.6634 57.842 64.7798H63.1985C63.2582 65.6577 63.5096 66.3906 63.9528 66.9787C64.4045 67.5582 65.0053 67.9972 65.7553 68.2955C66.5138 68.5852 67.3704 68.7301 68.3249 68.7301C69.2624 68.7301 70.0763 68.5937 70.7667 68.321C71.4656 68.0483 72.0067 67.669 72.3903 67.1832C72.7738 66.6974 72.9656 66.1392 72.9656 65.5085C72.9656 64.9205 72.7908 64.4261 72.4414 64.0256C72.1005 63.625 71.5977 63.2841 70.9329 63.0028C70.2766 62.7216 69.4712 62.4659 68.5167 62.2358L65.6658 61.5199C63.4585 60.983 61.7156 60.1435 60.4371 59.0014C59.1587 57.8594 58.5238 56.321 58.5323 54.3864C58.5238 52.8011 58.9457 51.4162 59.7979 50.2315C60.6587 49.0469 61.8391 48.1222 63.3391 47.4574C64.8391 46.7926 66.5437 46.4602 68.4528 46.4602C70.396 46.4602 72.092 46.7926 73.5408 47.4574C74.9982 48.1222 76.1317 49.0469 76.9414 50.2315C77.7511 51.4162 78.1687 52.7884 78.1942 54.348H72.8889Z" fill="black"/>
</svg>
