<svg width="64" height="64" viewBox="0 0 64 64" fill="none" xmlns="http://www.w3.org/2000/svg">
<g clip-path="url(#clip0_1103_271)">
<circle cx="32" cy="32" r="32" fill="white"/>
<path d="M52 19.8241C50.5277 20.4933 48.9407 20.9331 47.2964 21.1434C48.979 20.13 50.2792 18.5239 50.891 16.5927C49.304 17.5488 47.5449 18.218 45.6902 18.6004C44.1797 16.956 42.0574 16 39.6482 16C35.1549 16 31.4837 19.6711 31.4837 24.2027C31.4837 24.8528 31.5602 25.4837 31.6941 26.0765C24.8872 25.7323 18.826 22.4627 14.7916 17.5105C14.0841 18.7151 13.6826 20.13 13.6826 21.6214C13.6826 24.4704 15.1166 26.9943 17.3346 28.4283C15.9771 28.4283 14.7151 28.0459 13.6061 27.4723V27.5296C13.6061 31.5067 16.4359 34.8337 20.1836 35.5794C18.9804 35.9086 17.7172 35.9544 16.4933 35.7132C17.0126 37.3432 18.0297 38.7694 19.4016 39.7915C20.7734 40.8135 22.4311 41.3799 24.1415 41.4111C21.2421 43.7064 17.6482 44.9471 13.9503 44.9293C13.3002 44.9293 12.6501 44.891 12 44.8145C15.6329 47.1472 19.9541 48.5048 24.5813 48.5048C39.6482 48.5048 47.9273 36 47.9273 25.1587C47.9273 24.7954 47.9273 24.4512 47.9082 24.088C49.5143 22.9407 50.891 21.4876 52 19.8241Z" fill="black"/>
</g>
<defs>
<clipPath id="clip0_1103_271">
<rect width="64" height="64" fill="white"/>
</clipPath>
</defs>
</svg>
