<svg width="140" height="100" viewBox="0 0 140 100" fill="none" xmlns="http://www.w3.org/2000/svg">
<g clip-path="url(#clip0_384_110)">
<path d="M6.03097 44.1756C1.87484 46.9464 1.87483 53.0536 6.03096 55.8244L66.2643 95.9799C68.6156 97.5475 71.6788 97.5475 74.0301 95.9799L134.264 55.8244C138.42 53.0536 138.42 46.9464 134.264 44.1756L74.0301 4.02006C71.6788 2.45253 68.6156 2.45253 66.2643 4.02006L6.03097 44.1756Z" fill="#29FFCC"/>
<path d="M69.5 79L41 29H63L69.5 40.5L76.5 29H98.5L69.5 79Z" fill="white"/>
<path d="M69.5 59L52.5 29H63L69.5 40L76.5 29H87L69.5 59Z" fill="black"/>
<path d="M42.6298 62.6889L40.3442 70.4783L40.4225 70.5311L46.7926 65.4968L48.771 66.8312L40.1675 73.3096L37.8677 71.7583L40.6473 61.3517L42.6298 62.6889ZM55.0009 71.0333L56.7855 72.2371L53.088 77.7189C52.6729 78.3344 52.1626 78.7738 51.5572 79.0371C50.9546 79.3022 50.3038 79.387 49.6047 79.2913C48.9075 79.1928 48.21 78.9082 47.512 78.4374C46.8114 77.9648 46.2848 77.4237 45.9323 76.8142C45.5817 76.2019 45.4165 75.5667 45.4366 74.9087C45.4567 74.2506 45.6743 73.6138 46.0895 72.9983L49.787 67.5165L51.5717 68.7203L47.977 74.0496C47.7602 74.371 47.6375 74.7041 47.609 75.0486C47.5832 75.3951 47.6513 75.7268 47.8132 76.0439C47.9751 76.361 48.2278 76.6354 48.5713 76.8671C48.9175 77.1006 49.2665 77.2321 49.6185 77.2616C49.9731 77.2929 50.3049 77.2308 50.6136 77.0753C50.9252 76.9216 51.1894 76.6841 51.4062 76.3626L55.0009 71.0333ZM52.5603 81.6686L58.2539 73.2275L63.9417 77.064L62.9492 78.5354L59.0461 75.9027L57.6894 77.914L61.2999 80.3494L60.3074 81.8208L56.6969 79.3855L55.3374 81.4009L59.2571 84.0448L58.2646 85.5162L52.5603 81.6686Z" fill="black"/>
<path d="M78.2544 75.6063L79.9974 74.3858L84.0695 80.2013C84.4459 80.7389 84.652 81.2904 84.688 81.856C84.7266 82.4197 84.6079 82.958 84.3318 83.471C84.0557 83.9839 83.6353 84.4381 83.0706 84.8335C82.5683 85.1852 82.0504 85.4164 81.5169 85.5269C80.9842 85.6329 80.471 85.5876 79.9773 85.3911C79.4818 85.1919 79.0414 84.8144 78.6563 84.2586L80.4116 83.0296C80.571 83.2457 80.7479 83.403 80.9423 83.5016C81.1376 83.5955 81.3393 83.6323 81.5476 83.6119C81.7567 83.5869 81.9644 83.5021 82.1707 83.3576C82.3879 83.2055 82.5389 83.0311 82.6235 82.8342C82.709 82.6327 82.7275 82.4135 82.6788 82.1764C82.6302 81.9394 82.5127 81.6878 82.3264 81.4218L78.2544 75.6063ZM87.6595 72.5955C87.3969 72.2898 87.0783 72.1325 86.7039 72.1236C86.3295 72.1147 85.9305 72.2585 85.5069 72.5551C85.2191 72.7566 85.0047 72.9674 84.8635 73.1877C84.7204 73.4052 84.6454 73.6216 84.6384 73.8369C84.6341 74.0503 84.6946 74.2466 84.8201 74.4258C84.9192 74.579 85.0417 74.6874 85.1875 74.7512C85.3361 74.8131 85.4999 74.842 85.6791 74.8379C85.8564 74.8311 86.0461 74.8014 86.2481 74.749C86.4482 74.6939 86.6535 74.623 86.8639 74.5363L87.7387 74.1908C88.1595 74.0175 88.5695 73.8923 88.9687 73.8151C89.3678 73.738 89.7481 73.7205 90.1095 73.7628C90.4709 73.8051 90.8068 73.9179 91.1171 74.1012C91.4302 74.2825 91.7098 74.546 91.9559 74.8916C92.3105 75.4039 92.4901 75.9377 92.4945 76.493C92.4998 77.0436 92.333 77.5913 91.9942 78.136C91.6562 78.6762 91.1479 79.1838 90.4691 79.6591C89.7958 80.1306 89.1371 80.438 88.4931 80.5815C87.8517 80.723 87.2496 80.6895 86.6867 80.4807C86.1246 80.2674 85.6267 79.8655 85.193 79.275L86.8994 78.0801C87.1142 78.3465 87.3578 78.5239 87.6302 78.6124C87.9033 78.6962 88.1926 78.702 88.4981 78.6298C88.8044 78.5529 89.1095 78.408 89.4136 78.1951C89.7123 77.9859 89.9411 77.7609 90.1002 77.5201C90.262 77.2773 90.3498 77.0358 90.3636 76.7955C90.3774 76.5552 90.314 76.3346 90.1733 76.1337C90.0422 75.9463 89.8762 75.8278 89.6756 75.7782C89.4776 75.7266 89.2414 75.7302 88.9669 75.7889C88.6951 75.8456 88.3815 75.9438 88.0261 76.0835L86.9582 76.4913C86.1353 76.8126 85.3928 76.934 84.7308 76.8553C84.0688 76.7767 83.5234 76.4282 83.0946 75.81C82.7383 75.3069 82.5638 74.7717 82.571 74.2042C82.581 73.6348 82.7507 73.0769 83.0803 72.5305C83.4099 71.9842 83.8787 71.4981 84.4869 71.0723C85.1059 70.6388 85.7203 70.3664 86.3302 70.255C86.9427 70.1417 87.5101 70.1834 88.0322 70.3802C88.5544 70.577 88.9935 70.9209 89.3495 71.4121L87.6595 72.5955Z" fill="black"/>
<path d="M70.0831 86.1293C69.755 86.1293 69.4732 86.0133 69.2379 85.7813C69.0059 85.5459 68.8899 85.2642 68.8899 84.9361C68.8899 84.6113 69.0059 84.3329 69.2379 84.1009C69.4732 83.8688 69.755 83.7528 70.0831 83.7528C70.4013 83.7528 70.6797 83.8688 70.9183 84.1009C71.157 84.3329 71.2763 84.6113 71.2763 84.9361C71.2763 85.1548 71.2199 85.3554 71.1072 85.5376C70.9979 85.7166 70.8537 85.8608 70.6747 85.9702C70.4957 86.0762 70.2985 86.1293 70.0831 86.1293Z" fill="black"/>
</g>
<defs>
<clipPath id="clip0_384_110">
<rect width="140" height="100" fill="white"/>
</clipPath>
</defs>
</svg>
